<svg width="27" height="26" viewBox="0 0 27 26" fill="none" xmlns="http://www.w3.org/2000/svg">
<rect width="27" height="25.35" rx="12.675" fill="#1F2A37" fill-opacity="0.2"/>
<path d="M16.83 6C15.4725 6 14.2575 6.66 13.5 7.6725C12.7425 6.66 11.5275 6 10.17 6C7.8675 6 6 7.875 6 10.1925C6 11.085 6.1425 11.91 6.39 12.675C7.575 16.425 11.2275 18.6675 13.035 19.2825C13.29 19.3725 13.71 19.3725 13.965 19.2825C15.7725 18.6675 19.425 16.425 20.61 12.675C20.8575 11.91 21 11.085 21 10.1925C21 7.875 19.1325 6 16.83 6Z" fill="white"/>
</svg>
