<svg width="16" height="16" viewBox="0 0 16 16" fill="none" xmlns="http://www.w3.org/2000/svg">
<path d="M14.6668 14.1667H1.3335C1.06016 14.1667 0.833496 14.3934 0.833496 14.6667C0.833496 14.9401 1.06016 15.1667 1.3335 15.1667H14.6668C14.9402 15.1667 15.1668 14.9401 15.1668 14.6667C15.1668 14.3934 14.9402 14.1667 14.6668 14.1667Z" fill="#9CA3AF"/>
<path d="M11.3333 1.33325H4.66667C2.66667 1.33325 2 2.52659 2 3.99992V14.6666H6V10.6266C6 10.2799 6.28 9.99992 6.62667 9.99992H9.38C9.72 9.99992 10.0067 10.2799 10.0067 10.6266V14.6666H14.0067V3.99992C14 2.52659 13.3333 1.33325 11.3333 1.33325ZM9.66667 6.16659H8.5V7.33325C8.5 7.60659 8.27333 7.83325 8 7.83325C7.72667 7.83325 7.5 7.60659 7.5 7.33325V6.16659H6.33333C6.06 6.16659 5.83333 5.93992 5.83333 5.66659C5.83333 5.39325 6.06 5.16659 6.33333 5.16659H7.5V3.99992C7.5 3.72659 7.72667 3.49992 8 3.49992C8.27333 3.49992 8.5 3.72659 8.5 3.99992V5.16659H9.66667C9.94 5.16659 10.1667 5.39325 10.1667 5.66659C10.1667 5.93992 9.94 6.16659 9.66667 6.16659Z" fill="#9CA3AF"/>
</svg>
