<svg width="16" height="17" viewBox="0 0 16 17" fill="none" xmlns="http://www.w3.org/2000/svg">
<path fill-rule="evenodd" clip-rule="evenodd" d="M7.91342 0.586426C7.43082 0.611116 6.95207 0.989077 6.58221 1.71919L5.17802 4.52757C4.98881 4.91596 4.48091 5.29439 4.05268 5.36411L1.51319 5.78237C-0.110091 6.06122 -0.488524 7.23636 0.676653 8.40154L2.65845 10.3833C2.98709 10.712 3.17631 11.3593 3.08668 11.8373L2.51903 14.2872C2.07088 16.2192 3.1066 16.9661 4.80955 15.9603L7.1897 14.5461C7.3881 14.4261 7.64848 14.3618 7.91342 14.353V0.586426Z" fill="#FEB052"/>
<path fill-rule="evenodd" clip-rule="evenodd" d="M7.91357 14.3542C8.22048 14.344 8.5335 14.4084 8.76333 14.5474L11.1435 15.9615C12.8464 16.9773 13.8821 16.2205 13.434 14.2885L12.8663 11.8386C12.7568 11.3705 12.946 10.7232 13.2747 10.3946L15.2565 8.41279C16.4216 7.23765 16.0432 6.06251 14.4199 5.79363L11.8804 5.37536C11.4522 5.29569 10.9443 4.92721 10.7551 4.53882L9.3509 1.73044C8.95393 0.941674 8.43154 0.561226 7.91357 0.587719V14.3542Z" fill="#FEB052"/>
</svg>
